<svg width="14" height="15" viewBox="0 0 14 15" fill="none" xmlns="http://www.w3.org/2000/svg">
<path d="M0 2.25C0 1.28477 0.784766 0.5 1.75 0.5H6.125V4C6.125 4.48398 6.51602 4.875 7 4.875H10.5V8.8125H4.8125C3.84727 8.8125 3.0625 9.59727 3.0625 10.5625V14.5H1.75C0.784766 14.5 0 13.7152 0 12.75V2.25ZM10.5 4H7V0.5L10.5 4ZM5.46875 10.125H5.90625C6.51055 10.125 7 10.6145 7 11.2188V11.4375C7 11.6781 6.80312 11.875 6.5625 11.875C6.32188 11.875 6.125 11.6781 6.125 11.4375V11.2188C6.125 11.0984 6.02656 11 5.90625 11H5.46875C5.34844 11 5.25 11.0984 5.25 11.2188V13.4062C5.25 13.5266 5.34844 13.625 5.46875 13.625H5.90625C6.02656 13.625 6.125 13.5266 6.125 13.4062V13.1875C6.125 12.9469 6.32188 12.75 6.5625 12.75C6.80312 12.75 7 12.9469 7 13.1875V13.4062C7 14.0105 6.51055 14.5 5.90625 14.5H5.46875C4.86445 14.5 4.375 14.0105 4.375 13.4062V11.2188C4.375 10.6145 4.86445 10.125 5.46875 10.125ZM9.1082 10.125H10.0625C10.3031 10.125 10.5 10.3219 10.5 10.5625C10.5 10.8031 10.3031 11 10.0625 11H9.1082C8.91133 11 8.75 11.1613 8.75 11.3582C8.75 11.5004 8.83203 11.6289 8.96328 11.6863L9.98594 12.1402C10.4316 12.3371 10.7188 12.7801 10.7188 13.2668C10.7188 13.9477 10.1664 14.5 9.48555 14.5H8.3125C8.07187 14.5 7.875 14.3031 7.875 14.0625C7.875 13.8219 8.07187 13.625 8.3125 13.625H9.48555C9.68242 13.625 9.84375 13.4637 9.84375 13.2668C9.84375 13.1246 9.76172 12.9961 9.63047 12.9387L8.60781 12.4848C8.16211 12.2879 7.875 11.8449 7.875 11.3582C7.875 10.6773 8.42734 10.125 9.1082 10.125ZM11.8125 10.125C12.0531 10.125 12.25 10.3219 12.25 10.5625V11.4266C12.25 12.0555 12.4004 12.6734 12.6875 13.2312C12.9746 12.6762 13.125 12.0582 13.125 11.4266V10.5625C13.125 10.3219 13.3219 10.125 13.5625 10.125C13.8031 10.125 14 10.3219 14 10.5625V11.4266C14 12.3754 13.7184 13.3051 13.1906 14.0953L13.0512 14.3059C12.9691 14.4289 12.8324 14.5 12.6875 14.5C12.5426 14.5 12.4059 14.4262 12.3238 14.3059L12.1844 14.0953C11.6566 13.3051 11.375 12.3754 11.375 11.4266V10.5625C11.375 10.3219 11.5719 10.125 11.8125 10.125Z" fill="#C79425"/>
</svg>
