<svg width="20" height="21" viewBox="0 0 20 21" fill="none" xmlns="http://www.w3.org/2000/svg">
<path d="M10 0.5C10.1797 0.5 10.3594 0.539063 10.5235 0.613281L17.8789 3.73438C18.7383 4.09766 19.3789 4.94531 19.375 5.96875C19.3555 9.84375 17.7617 16.9336 11.0313 20.1562C10.3789 20.4688 9.62111 20.4688 8.96877 20.1562C2.2383 16.9336 0.644549 9.84375 0.625018 5.96875C0.621112 4.94531 1.26174 4.09766 2.12111 3.73438L9.48049 0.613281C9.64064 0.539063 9.82033 0.5 10 0.5ZM10 3.10938V17.875C15.3906 15.2656 16.8399 9.48828 16.875 6.02344L10 3.10938Z" fill="#107636"/>
</svg>
