<svg width="16" height="21" viewBox="0 0 16 21" fill="none" xmlns="http://www.w3.org/2000/svg">
<path d="M12.6486 2.24217C12.8791 1.70702 12.7072 1.08202 12.2345 0.738268C11.7619 0.394518 11.1173 0.425768 10.6759 0.808581L0.675936 9.55858C0.285311 9.90233 0.144686 10.4531 0.328279 10.9375C0.511873 11.4219 0.980623 11.75 1.50015 11.75H5.85562L2.85172 18.7578C2.62125 19.293 2.79312 19.918 3.26578 20.2617C3.73844 20.6055 4.38297 20.5742 4.82437 20.1914L14.8244 11.4414C15.215 11.0976 15.3556 10.5469 15.172 10.0625C14.9884 9.57811 14.5236 9.25389 14.0002 9.25389H9.64469L12.6486 2.24217Z" fill="#134CCA"/>
</svg>
