<svg width="17" height="16" viewBox="0 0 17 16" fill="none" xmlns="http://www.w3.org/2000/svg">
<path d="M9.5 3.41524V10.9996C9.5 11.5527 9.05313 11.9996 8.5 11.9996C7.94688 11.9996 7.5 11.5527 7.5 10.9996V3.41524L5.20625 5.70899C4.81563 6.09962 4.18125 6.09962 3.79063 5.70899C3.4 5.31837 3.4 4.68399 3.79063 4.29337L7.79063 0.293365C8.18125 -0.0972595 8.81563 -0.0972595 9.20625 0.293365L13.2063 4.29337C13.5969 4.68399 13.5969 5.31837 13.2063 5.70899C12.8156 6.09962 12.1812 6.09962 11.7906 5.70899L9.5 3.41524ZM2.5 10.9996H6.5C6.5 12.1027 7.39687 12.9996 8.5 12.9996C9.60312 12.9996 10.5 12.1027 10.5 10.9996H14.5C15.6031 10.9996 16.5 11.8965 16.5 12.9996V13.9996C16.5 15.1027 15.6031 15.9996 14.5 15.9996H2.5C1.39688 15.9996 0.5 15.1027 0.5 13.9996V12.9996C0.5 11.8965 1.39688 10.9996 2.5 10.9996ZM14 14.2496C14.1989 14.2496 14.3897 14.1706 14.5303 14.0299C14.671 13.8893 14.75 13.6985 14.75 13.4996C14.75 13.3007 14.671 13.1099 14.5303 12.9693C14.3897 12.8286 14.1989 12.7496 14 12.7496C13.8011 12.7496 13.6103 12.8286 13.4697 12.9693C13.329 13.1099 13.25 13.3007 13.25 13.4996C13.25 13.6985 13.329 13.8893 13.4697 14.0299C13.6103 14.1706 13.8011 14.2496 14 14.2496Z" fill="white"/>
</svg>
