<svg width="41" height="33" viewBox="0 0 41 33" fill="none" xmlns="http://www.w3.org/2000/svg">
<path d="M20.5 0.5C21.6063 0.5 22.5 1.39375 22.5 2.5V6.5H30C32.4875 6.5 34.5 8.5125 34.5 11V28C34.5 30.4875 32.4875 32.5 30 32.5H11C8.5125 32.5 6.5 30.4875 6.5 28V11C6.5 8.5125 8.5125 6.5 11 6.5H18.5V2.5C18.5 1.39375 19.3937 0.5 20.5 0.5ZM13.5 24.5C12.95 24.5 12.5 24.95 12.5 25.5C12.5 26.05 12.95 26.5 13.5 26.5H15.5C16.05 26.5 16.5 26.05 16.5 25.5C16.5 24.95 16.05 24.5 15.5 24.5H13.5ZM19.5 24.5C18.95 24.5 18.5 24.95 18.5 25.5C18.5 26.05 18.95 26.5 19.5 26.5H21.5C22.05 26.5 22.5 26.05 22.5 25.5C22.5 24.95 22.05 24.5 21.5 24.5H19.5ZM25.5 24.5C24.95 24.5 24.5 24.95 24.5 25.5C24.5 26.05 24.95 26.5 25.5 26.5H27.5C28.05 26.5 28.5 26.05 28.5 25.5C28.5 24.95 28.05 24.5 27.5 24.5H25.5ZM17 16.5C17 15.837 16.7366 15.2011 16.2678 14.7322C15.7989 14.2634 15.163 14 14.5 14C13.837 14 13.2011 14.2634 12.7322 14.7322C12.2634 15.2011 12 15.837 12 16.5C12 17.163 12.2634 17.7989 12.7322 18.2678C13.2011 18.7366 13.837 19 14.5 19C15.163 19 15.7989 18.7366 16.2678 18.2678C16.7366 17.7989 17 17.163 17 16.5ZM26.5 19C27.163 19 27.7989 18.7366 28.2678 18.2678C28.7366 17.7989 29 17.163 29 16.5C29 15.837 28.7366 15.2011 28.2678 14.7322C27.7989 14.2634 27.163 14 26.5 14C25.837 14 25.2011 14.2634 24.7322 14.7322C24.2634 15.2011 24 15.837 24 16.5C24 17.163 24.2634 17.7989 24.7322 18.2678C25.2011 18.7366 25.837 19 26.5 19ZM3.5 14.5H4.5V26.5H3.5C1.84375 26.5 0.5 25.1562 0.5 23.5V17.5C0.5 15.8438 1.84375 14.5 3.5 14.5ZM37.5 14.5C39.1562 14.5 40.5 15.8438 40.5 17.5V23.5C40.5 25.1562 39.1562 26.5 37.5 26.5H36.5V14.5H37.5Z" fill="url(#paint0_linear_76_612)"/>
<defs>
<linearGradient id="paint0_linear_76_612" x1="-0.416811" y1="36.3885" x2="42.4843" y2="33.55" gradientUnits="userSpaceOnUse">
<stop offset="0.0493455" stop-color="#094FC2"/>
<stop offset="1" stop-color="#5A38AA"/>
</linearGradient>
</defs>
</svg>
