<svg width="22" height="21" viewBox="0 0 22 21" fill="none" xmlns="http://www.w3.org/2000/svg">
<path d="M10.875 9.875V1.14844C10.875 0.796875 11.1484 0.5 11.5 0.5C16.332 0.5 20.25 4.41797 20.25 9.25C20.25 9.60156 19.9531 9.875 19.6016 9.875H10.875ZM0.25 11.125C0.25 6.38672 3.76953 2.46484 8.33594 1.83984C8.69531 1.78906 9 2.07812 9 2.44141V11.75L15.1133 17.8633C15.375 18.125 15.3555 18.5547 15.0547 18.7656C13.5234 19.8594 11.6484 20.5 9.625 20.5C4.44922 20.5 0.25 16.3047 0.25 11.125ZM20.8125 11.75C21.1758 11.75 21.4609 12.0547 21.4141 12.4141C21.1133 14.5977 20.0625 16.5391 18.5273 17.9727C18.293 18.1914 17.9258 18.1758 17.6992 17.9453L11.5 11.75H20.8125Z" fill="#C79425"/>
</svg>
