<svg width="21" height="10" viewBox="0 0 21 10" fill="none" xmlns="http://www.w3.org/2000/svg">
<path d="M20.2099 0.29C20.117 0.196272 20.0064 0.121877 19.8845 0.0711088C19.7627 0.0203401 19.632 -0.00579834 19.4999 -0.00579834C19.3679 -0.00579834 19.2372 0.0203401 19.1154 0.0711088C18.9935 0.121877 18.8829 0.196272 18.7899 0.29L12.4999 6.59L8.20994 2.29C8.11698 2.19627 8.00637 2.12188 7.88452 2.07111C7.76266 2.02034 7.63195 1.9942 7.49994 1.9942C7.36793 1.9942 7.23722 2.02034 7.11536 2.07111C6.9935 2.12188 6.8829 2.19627 6.78994 2.29L0.789939 8.29C0.696211 8.38296 0.621816 8.49356 0.571048 8.61542C0.520279 8.73728 0.494141 8.86799 0.494141 9C0.494141 9.13201 0.520279 9.26272 0.571048 9.38458C0.621816 9.50644 0.696211 9.61704 0.789939 9.71C0.882902 9.80373 0.993503 9.87812 1.11536 9.92889C1.23722 9.97966 1.36793 10.0058 1.49994 10.0058C1.63195 10.0058 1.76266 9.97966 1.88452 9.92889C2.00637 9.87812 2.11698 9.80373 2.20994 9.71L7.49994 4.41L11.7899 8.71C11.8829 8.80373 11.9935 8.87812 12.1154 8.92889C12.2372 8.97966 12.3679 9.0058 12.4999 9.0058C12.632 9.0058 12.7627 8.97966 12.8845 8.92889C13.0064 8.87812 13.117 8.80373 13.2099 8.71L20.2099 1.71C20.3037 1.61704 20.3781 1.50644 20.4288 1.38458C20.4796 1.26272 20.5057 1.13201 20.5057 1C20.5057 0.867988 20.4796 0.737282 20.4288 0.615423C20.3781 0.493564 20.3037 0.382963 20.2099 0.29Z" fill="white"/>
</svg>
