<svg width="34" height="32" viewBox="0 0 34 32" fill="none" xmlns="http://www.w3.org/2000/svg">
<g clip-path="url(#clip0_114_152)">
<path d="M15.0591 16.698L11.445 21.3682C10.939 22.022 10.1171 22.022 9.6111 21.3682C9.10511 20.7143 9.10511 19.6523 9.6111 18.9997L14.1449 13.1427C14.6402 12.5039 15.4353 12.4901 15.9426 13.0998V3.49984C15.9403 2.60555 15.5744 1.746 14.9201 1.09753C14.2658 0.449056 13.3726 0.0608232 12.4238 0.0124752C11.475 -0.0358727 10.5425 0.259329 9.81762 0.837522C9.09274 1.41571 8.63042 2.23306 8.52551 3.12189C7.60807 3.34081 6.79423 3.84109 6.21248 4.54374C5.63074 5.2464 5.31422 6.11141 5.31291 7.0022C5.31082 7.3699 5.36446 7.736 5.4722 8.08945C4.52417 8.28524 3.67561 8.77989 3.06704 9.49151C2.45846 10.2031 2.12637 11.089 2.12574 12.0025C2.12225 12.9033 2.44521 13.7784 3.04133 14.4831C2.09869 14.9022 1.30787 15.573 0.767371 16.412C0.226875 17.251 -0.0394075 18.2212 0.00168961 19.2016C0.0427867 20.182 0.389448 21.1294 0.998494 21.9257C1.60754 22.7221 2.45205 23.3321 3.42685 23.68C3.26904 24.1061 3.18806 24.5541 3.18724 25.0054C3.1883 26.0659 3.63641 27.0827 4.43321 27.8327C5.23001 28.5826 6.3104 29.0044 7.43724 29.0054C7.8025 29.0079 8.16654 28.9655 8.52015 28.8794C8.61907 29.7718 9.07839 30.5943 9.80321 31.1772C10.528 31.76 11.463 32.0585 12.415 32.0112C13.367 31.9638 14.2633 31.5741 14.9188 30.9226C15.5743 30.2711 15.9389 29.4075 15.9372 28.5102V17.8331L15.0591 16.698Z" fill="white"/>
<path d="M33.9998 18.9997C33.9999 18.0526 33.714 17.125 33.1756 16.325C32.6372 15.5249 31.8683 14.8853 30.9585 14.4806C31.5552 13.7761 31.8782 12.9009 31.8741 12C31.8745 11.0863 31.5427 10.1999 30.934 9.4881C30.3252 8.77629 29.4761 8.28187 28.5276 8.08693C28.6354 7.73349 28.689 7.36738 28.6869 6.99969C28.6879 6.10834 28.3723 5.24225 27.7902 4.53915C27.2081 3.83606 26.3929 3.33631 25.4743 3.11937C25.3694 2.23054 24.9071 1.4132 24.1822 0.835004C23.4573 0.256812 22.5248 -0.0383904 21.576 0.00995754C20.6272 0.0583055 19.7341 0.446538 19.0798 1.09501C18.4254 1.74348 18.0596 2.60303 18.0572 3.49732V15.8438L18.2915 16.1474L22.5549 10.6356C23.0609 9.98173 23.8828 9.98173 24.3887 10.6356C24.8947 11.2895 24.8947 12.3515 24.3887 13.0041L19.2071 19.6976C18.8939 20.1021 18.4588 20.2558 18.0532 20.1587V28.4976C18.0516 29.3949 18.4162 30.2585 19.0717 30.91C19.7271 31.5615 20.6234 31.9512 21.5754 31.9986C22.5275 32.046 23.4624 31.7474 24.1873 31.1646C24.9121 30.5818 25.3714 29.7592 25.4703 28.8668C25.8239 28.9529 26.188 28.9953 26.5532 28.9928C27.6801 28.9918 28.7605 28.57 29.5573 27.8201C30.3541 27.0702 30.8022 26.0533 30.8032 24.9928C30.8024 24.5415 30.7214 24.0935 30.5636 23.6674C31.5723 23.3099 32.4414 22.6718 33.0552 21.8379C33.669 21.0041 33.9985 20.0141 33.9998 18.9997Z" fill="white"/>
</g>
<defs>
<clipPath id="clip0_114_152">
<rect width="34" height="32" fill="white"/>
</clipPath>
</defs>
</svg>
